<mxfile host="app.diagrams.net" modified="2023-07-24T09:50:23.679Z" agent="Mozilla/5.0 (Windows NT 10.0; Win64; x64) AppleWebKit/537.36 (KHTML, like Gecko) Chrome/113.0.0.0 Safari/537.36" etag="VWjuX3GjMYznkUD5479G" version="21.5.2" type="github">
  <diagram id="kuXfZ5j9J_MOZKS2mzVd" name="第 1 页">
    <mxGraphModel dx="1195" dy="598" grid="1" gridSize="10" guides="1" tooltips="1" connect="1" arrows="1" fold="1" page="1" pageScale="1" pageWidth="827" pageHeight="1169" math="0" shadow="0">
      <root>
        <mxCell id="0" />
        <mxCell id="1" parent="0" />
        <mxCell id="bve2lGWTHoPqpzMd3bUK-150" value="" style="rounded=1;whiteSpace=wrap;html=1;strokeColor=default;fontFamily=Helvetica;fontSize=12;fontColor=default;fillColor=default;dashed=1;" vertex="1" parent="1">
          <mxGeometry x="50" y="430" width="90.58" height="100" as="geometry" />
        </mxCell>
        <mxCell id="bve2lGWTHoPqpzMd3bUK-148" value="" style="rounded=1;whiteSpace=wrap;html=1;strokeColor=default;fontFamily=Helvetica;fontSize=12;fontColor=default;fillColor=default;dashed=1;" vertex="1" parent="1">
          <mxGeometry x="173.47" y="230" width="366.53" height="180" as="geometry" />
        </mxCell>
        <mxCell id="bve2lGWTHoPqpzMd3bUK-1" value="&lt;div style=&quot;&quot;&gt;&lt;br&gt;&lt;/div&gt;" style="rounded=0;whiteSpace=wrap;html=1;align=left;direction=south;" vertex="1" parent="1">
          <mxGeometry x="258.74" y="240" width="29.48" height="100" as="geometry" />
        </mxCell>
        <mxCell id="bve2lGWTHoPqpzMd3bUK-2" value="" style="endArrow=classic;html=1;rounded=0;entryX=0.5;entryY=1;entryDx=0;entryDy=0;exitX=1.013;exitY=0.627;exitDx=0;exitDy=0;exitPerimeter=0;" edge="1" parent="1" source="bve2lGWTHoPqpzMd3bUK-4" target="bve2lGWTHoPqpzMd3bUK-1">
          <mxGeometry width="50" height="50" relative="1" as="geometry">
            <mxPoint x="170" y="269.76" as="sourcePoint" />
            <mxPoint x="298.22" y="270" as="targetPoint" />
          </mxGeometry>
        </mxCell>
        <mxCell id="bve2lGWTHoPqpzMd3bUK-3" value="Function" style="edgeLabel;html=1;align=center;verticalAlign=middle;resizable=0;points=[];" vertex="1" connectable="0" parent="bve2lGWTHoPqpzMd3bUK-2">
          <mxGeometry x="-0.0163" relative="1" as="geometry">
            <mxPoint x="5" as="offset" />
          </mxGeometry>
        </mxCell>
        <mxCell id="bve2lGWTHoPqpzMd3bUK-4" value="int main(int a,int b){&lt;br style=&quot;text-align: left;&quot;&gt;&lt;div style=&quot;text-align: left;&quot;&gt;&lt;span style=&quot;background-color: initial;&quot;&gt;&lt;span style=&quot;white-space: pre;&quot;&gt;&amp;nbsp;&amp;nbsp;&amp;nbsp;&amp;nbsp;&lt;/span&gt;&lt;/span&gt;&lt;span style=&quot;background-color: initial; text-align: left;&quot;&gt;int ret;&lt;/span&gt;&lt;/div&gt;&lt;span style=&quot;&quot;&gt;&lt;div style=&quot;text-align: left;&quot;&gt;&lt;span style=&quot;background-color: initial;&quot;&gt;&amp;nbsp; &amp;nbsp; ret = a+b;&lt;/span&gt;&lt;/div&gt;&lt;/span&gt;&lt;div style=&quot;text-align: left;&quot;&gt;&lt;span style=&quot;background-color: initial;&quot;&gt;&lt;span style=&quot;white-space: pre;&quot;&gt;&amp;nbsp;&amp;nbsp;&amp;nbsp;&amp;nbsp;&lt;/span&gt;&lt;/span&gt;&lt;span style=&quot;background-color: initial;&quot;&gt;return ret;&lt;/span&gt;&lt;/div&gt;&lt;div style=&quot;text-align: left;&quot;&gt;&lt;span style=&quot;background-color: initial;&quot;&gt;}&lt;/span&gt;&lt;/div&gt;" style="rounded=1;whiteSpace=wrap;html=1;" vertex="1" parent="1">
          <mxGeometry x="40" y="240" width="130" height="80" as="geometry" />
        </mxCell>
        <mxCell id="bve2lGWTHoPqpzMd3bUK-7" value="GraphCodeBERT" style="text;strokeColor=none;align=center;fillColor=none;html=1;verticalAlign=middle;whiteSpace=wrap;rounded=0;fontSize=12;fontFamily=Helvetica;fontColor=default;rotation=-90;" vertex="1" parent="1">
          <mxGeometry x="244.51" y="275" width="57.93" height="30" as="geometry" />
        </mxCell>
        <mxCell id="bve2lGWTHoPqpzMd3bUK-15" style="edgeStyle=orthogonalEdgeStyle;rounded=0;orthogonalLoop=1;jettySize=auto;html=1;fontFamily=Helvetica;fontSize=12;fontColor=default;entryX=-0.004;entryY=0.5;entryDx=0;entryDy=0;entryPerimeter=0;" edge="1" parent="1">
          <mxGeometry relative="1" as="geometry">
            <mxPoint x="288.22" y="364.40000000000003" as="sourcePoint" />
            <mxPoint x="335.83000000000015" y="365" as="targetPoint" />
            <Array as="points" />
          </mxGeometry>
        </mxCell>
        <mxCell id="bve2lGWTHoPqpzMd3bUK-16" value="DFG" style="edgeLabel;html=1;align=center;verticalAlign=middle;resizable=0;points=[];fontSize=12;fontFamily=Helvetica;fontColor=default;" vertex="1" connectable="0" parent="bve2lGWTHoPqpzMd3bUK-15">
          <mxGeometry x="-0.0471" y="-2" relative="1" as="geometry">
            <mxPoint x="-4" y="-2" as="offset" />
          </mxGeometry>
        </mxCell>
        <mxCell id="bve2lGWTHoPqpzMd3bUK-10" value="Graph Extraction" style="rounded=0;whiteSpace=wrap;html=1;strokeColor=default;fontFamily=Helvetica;fontSize=12;fontColor=default;fillColor=default;" vertex="1" parent="1">
          <mxGeometry x="188.22" y="350" width="100" height="30" as="geometry" />
        </mxCell>
        <mxCell id="bve2lGWTHoPqpzMd3bUK-14" value="" style="endArrow=classic;html=1;rounded=0;fontFamily=Helvetica;fontSize=12;fontColor=default;exitX=0.462;exitY=1;exitDx=0;exitDy=0;exitPerimeter=0;entryX=0;entryY=0.5;entryDx=0;entryDy=0;" edge="1" parent="1" source="bve2lGWTHoPqpzMd3bUK-4" target="bve2lGWTHoPqpzMd3bUK-10">
          <mxGeometry width="50" height="50" relative="1" as="geometry">
            <mxPoint x="100" y="311" as="sourcePoint" />
            <mxPoint x="130" y="370" as="targetPoint" />
            <Array as="points">
              <mxPoint x="100" y="365" />
            </Array>
          </mxGeometry>
        </mxCell>
        <mxCell id="bve2lGWTHoPqpzMd3bUK-37" value="&lt;div style=&quot;&quot;&gt;&lt;br&gt;&lt;/div&gt;" style="rounded=0;whiteSpace=wrap;html=1;align=left;direction=south;" vertex="1" parent="1">
          <mxGeometry x="338.73" y="250" width="29.49" height="70" as="geometry" />
        </mxCell>
        <mxCell id="bve2lGWTHoPqpzMd3bUK-38" value="Tokenizer" style="text;strokeColor=none;align=center;fillColor=none;html=1;verticalAlign=middle;whiteSpace=wrap;rounded=0;fontSize=12;fontFamily=Helvetica;fontColor=default;rotation=-90;" vertex="1" parent="1">
          <mxGeometry x="324.51" y="270" width="57.93" height="30" as="geometry" />
        </mxCell>
        <mxCell id="bve2lGWTHoPqpzMd3bUK-40" value="" style="endArrow=classic;html=1;rounded=0;fontFamily=Helvetica;fontSize=12;fontColor=default;exitX=0.5;exitY=1;exitDx=0;exitDy=0;entryX=0.698;entryY=0.991;entryDx=0;entryDy=0;entryPerimeter=0;" edge="1" parent="1" source="bve2lGWTHoPqpzMd3bUK-7">
          <mxGeometry width="50" height="50" relative="1" as="geometry">
            <mxPoint x="308.36296000000004" y="290.00000000000006" as="sourcePoint" />
            <mxPoint x="338.73064" y="289.90000000000003" as="targetPoint" />
          </mxGeometry>
        </mxCell>
        <mxCell id="bve2lGWTHoPqpzMd3bUK-48" value="" style="ellipse;whiteSpace=wrap;html=1;aspect=fixed;rounded=0;strokeColor=default;fontFamily=Helvetica;fontSize=12;fontColor=default;fillColor=default;" vertex="1" parent="1">
          <mxGeometry x="337.70000000000005" y="330" width="20" height="20" as="geometry" />
        </mxCell>
        <mxCell id="bve2lGWTHoPqpzMd3bUK-51" value="" style="ellipse;whiteSpace=wrap;html=1;aspect=fixed;rounded=0;strokeColor=default;fontFamily=Helvetica;fontSize=12;fontColor=default;fillColor=default;" vertex="1" parent="1">
          <mxGeometry x="336.15" y="370" width="20" height="20" as="geometry" />
        </mxCell>
        <mxCell id="bve2lGWTHoPqpzMd3bUK-52" value="" style="ellipse;whiteSpace=wrap;html=1;aspect=fixed;rounded=0;strokeColor=default;fontFamily=Helvetica;fontSize=12;fontColor=default;fillColor=default;" vertex="1" parent="1">
          <mxGeometry x="397.17999999999995" y="370" width="20" height="20" as="geometry" />
        </mxCell>
        <mxCell id="bve2lGWTHoPqpzMd3bUK-53" value="" style="ellipse;whiteSpace=wrap;html=1;aspect=fixed;rounded=0;strokeColor=default;fontFamily=Helvetica;fontSize=12;fontColor=default;fillColor=default;" vertex="1" parent="1">
          <mxGeometry x="396.65999999999997" y="330" width="20" height="20" as="geometry" />
        </mxCell>
        <mxCell id="bve2lGWTHoPqpzMd3bUK-54" value="" style="ellipse;whiteSpace=wrap;html=1;aspect=fixed;rounded=0;strokeColor=default;fontFamily=Helvetica;fontSize=12;fontColor=default;fillColor=default;" vertex="1" parent="1">
          <mxGeometry x="367.17999999999995" y="390" width="20" height="20" as="geometry" />
        </mxCell>
        <mxCell id="bve2lGWTHoPqpzMd3bUK-55" value="" style="ellipse;whiteSpace=wrap;html=1;aspect=fixed;rounded=0;strokeColor=default;fontFamily=Helvetica;fontSize=12;fontColor=default;fillColor=default;" vertex="1" parent="1">
          <mxGeometry x="367.16999999999996" y="350" width="20" height="20" as="geometry" />
        </mxCell>
        <mxCell id="bve2lGWTHoPqpzMd3bUK-57" value="" style="endArrow=classic;html=1;rounded=0;fontFamily=Helvetica;fontSize=12;fontColor=default;entryX=0.103;entryY=0.84;entryDx=0;entryDy=0;entryPerimeter=0;" edge="1" parent="1" source="bve2lGWTHoPqpzMd3bUK-54" target="bve2lGWTHoPqpzMd3bUK-52">
          <mxGeometry width="50" height="50" relative="1" as="geometry">
            <mxPoint x="388.22" y="390" as="sourcePoint" />
            <mxPoint x="432.17999999999995" y="350" as="targetPoint" />
          </mxGeometry>
        </mxCell>
        <mxCell id="bve2lGWTHoPqpzMd3bUK-58" value="" style="endArrow=classic;html=1;rounded=0;fontFamily=Helvetica;fontSize=12;fontColor=default;entryX=0.221;entryY=0.914;entryDx=0;entryDy=0;entryPerimeter=0;" edge="1" parent="1" target="bve2lGWTHoPqpzMd3bUK-55">
          <mxGeometry width="50" height="50" relative="1" as="geometry">
            <mxPoint x="356.15" y="378" as="sourcePoint" />
            <mxPoint x="369.15" y="370" as="targetPoint" />
          </mxGeometry>
        </mxCell>
        <mxCell id="bve2lGWTHoPqpzMd3bUK-59" value="" style="endArrow=classic;html=1;rounded=0;fontFamily=Helvetica;fontSize=12;fontColor=default;exitX=0.5;exitY=1;exitDx=0;exitDy=0;entryX=0.604;entryY=0;entryDx=0;entryDy=0;entryPerimeter=0;" edge="1" parent="1" source="bve2lGWTHoPqpzMd3bUK-48" target="bve2lGWTHoPqpzMd3bUK-51">
          <mxGeometry width="50" height="50" relative="1" as="geometry">
            <mxPoint x="358.22" y="400" as="sourcePoint" />
            <mxPoint x="408.22" y="350" as="targetPoint" />
          </mxGeometry>
        </mxCell>
        <mxCell id="bve2lGWTHoPqpzMd3bUK-60" value="" style="endArrow=classic;html=1;rounded=0;fontFamily=Helvetica;fontSize=12;fontColor=default;exitX=0.083;exitY=0.176;exitDx=0;exitDy=0;exitPerimeter=0;" edge="1" parent="1" source="bve2lGWTHoPqpzMd3bUK-52" target="bve2lGWTHoPqpzMd3bUK-55">
          <mxGeometry width="50" height="50" relative="1" as="geometry">
            <mxPoint x="358.22" y="400" as="sourcePoint" />
            <mxPoint x="408.22" y="350" as="targetPoint" />
          </mxGeometry>
        </mxCell>
        <mxCell id="bve2lGWTHoPqpzMd3bUK-61" value="" style="endArrow=classic;html=1;rounded=0;fontFamily=Helvetica;fontSize=12;fontColor=default;entryX=0.812;entryY=0.149;entryDx=0;entryDy=0;entryPerimeter=0;exitX=0;exitY=1;exitDx=0;exitDy=0;" edge="1" parent="1" source="bve2lGWTHoPqpzMd3bUK-53" target="bve2lGWTHoPqpzMd3bUK-55">
          <mxGeometry width="50" height="50" relative="1" as="geometry">
            <mxPoint x="358.22" y="390" as="sourcePoint" />
            <mxPoint x="408.22" y="340" as="targetPoint" />
          </mxGeometry>
        </mxCell>
        <mxCell id="bve2lGWTHoPqpzMd3bUK-66" value="" style="rounded=0;whiteSpace=wrap;html=1;fontFamily=Helvetica;fontSize=12;fontStyle=1;" vertex="1" parent="1">
          <mxGeometry x="452.22" y="270" width="20" height="20" as="geometry" />
        </mxCell>
        <mxCell id="bve2lGWTHoPqpzMd3bUK-69" value="" style="rounded=0;whiteSpace=wrap;html=1;fontFamily=Helvetica;fontSize=12;fontStyle=1;" vertex="1" parent="1">
          <mxGeometry x="472.22" y="270" width="20" height="20" as="geometry" />
        </mxCell>
        <mxCell id="bve2lGWTHoPqpzMd3bUK-70" value="" style="rounded=0;whiteSpace=wrap;html=1;fontFamily=Helvetica;fontSize=12;fontStyle=1;" vertex="1" parent="1">
          <mxGeometry x="492.22" y="270" width="20" height="20" as="geometry" />
        </mxCell>
        <mxCell id="bve2lGWTHoPqpzMd3bUK-71" value="" style="rounded=0;whiteSpace=wrap;html=1;fontFamily=Helvetica;fontSize=12;fontStyle=1;" vertex="1" parent="1">
          <mxGeometry x="462.22" y="280" width="20" height="20" as="geometry" />
        </mxCell>
        <mxCell id="bve2lGWTHoPqpzMd3bUK-72" value="" style="rounded=0;whiteSpace=wrap;html=1;fontFamily=Helvetica;fontSize=12;fontStyle=1;" vertex="1" parent="1">
          <mxGeometry x="482.22" y="280" width="20" height="20" as="geometry" />
        </mxCell>
        <mxCell id="bve2lGWTHoPqpzMd3bUK-73" value="" style="rounded=0;whiteSpace=wrap;html=1;fontFamily=Helvetica;fontSize=12;fontStyle=1;" vertex="1" parent="1">
          <mxGeometry x="502.22" y="280" width="20" height="20" as="geometry" />
        </mxCell>
        <mxCell id="bve2lGWTHoPqpzMd3bUK-74" value="" style="rounded=0;whiteSpace=wrap;html=1;fontFamily=Helvetica;fontSize=12;fontStyle=1;" vertex="1" parent="1">
          <mxGeometry x="472.22" y="290" width="20" height="20" as="geometry" />
        </mxCell>
        <mxCell id="bve2lGWTHoPqpzMd3bUK-75" value="" style="rounded=0;whiteSpace=wrap;html=1;strokeColor=#2D7600;fontFamily=Helvetica;fontSize=12;fontColor=#ffffff;fillColor=#60a917;fontStyle=1" vertex="1" parent="1">
          <mxGeometry x="160" y="150" width="100" as="geometry" />
        </mxCell>
        <mxCell id="bve2lGWTHoPqpzMd3bUK-76" value="" style="rounded=0;whiteSpace=wrap;html=1;fontFamily=Helvetica;fontSize=12;fontStyle=1;" vertex="1" parent="1">
          <mxGeometry x="512.22" y="290" width="20" height="20" as="geometry" />
        </mxCell>
        <mxCell id="bve2lGWTHoPqpzMd3bUK-77" value="" style="rounded=0;whiteSpace=wrap;html=1;fontFamily=Helvetica;fontSize=12;fontStyle=1;" vertex="1" parent="1">
          <mxGeometry x="492.22" y="290" width="20" height="20" as="geometry" />
        </mxCell>
        <mxCell id="bve2lGWTHoPqpzMd3bUK-79" value="" style="endArrow=classic;html=1;rounded=0;fontFamily=Helvetica;fontSize=12;fontColor=default;exitX=0.5;exitY=0;exitDx=0;exitDy=0;" edge="1" parent="1">
          <mxGeometry width="50" height="50" relative="1" as="geometry">
            <mxPoint x="368.22" y="290" as="sourcePoint" />
            <mxPoint x="450" y="290" as="targetPoint" />
          </mxGeometry>
        </mxCell>
        <mxCell id="bve2lGWTHoPqpzMd3bUK-80" value="" style="endArrow=classic;html=1;rounded=0;fontFamily=Helvetica;fontSize=12;fontColor=default;exitX=0.5;exitY=0;exitDx=0;exitDy=0;entryX=-0.108;entryY=1.021;entryDx=0;entryDy=0;entryPerimeter=0;" edge="1" parent="1">
          <mxGeometry width="50" height="50" relative="1" as="geometry">
            <mxPoint x="417.17999999999995" y="364.8" as="sourcePoint" />
            <mxPoint x="451.17999999999995" y="364.8" as="targetPoint" />
          </mxGeometry>
        </mxCell>
        <mxCell id="bve2lGWTHoPqpzMd3bUK-82" value="" style="rounded=0;whiteSpace=wrap;html=1;fontFamily=Helvetica;fontSize=12;fontStyle=1;fillColor=#f5f5f5;fontColor=#333333;strokeColor=#666666;" vertex="1" parent="1">
          <mxGeometry x="452.22" y="345" width="20" height="20" as="geometry" />
        </mxCell>
        <mxCell id="bve2lGWTHoPqpzMd3bUK-83" value="" style="rounded=0;whiteSpace=wrap;html=1;fontFamily=Helvetica;fontSize=12;fontStyle=1;fillColor=#f5f5f5;fontColor=#333333;strokeColor=#666666;" vertex="1" parent="1">
          <mxGeometry x="472.22" y="345" width="20" height="20" as="geometry" />
        </mxCell>
        <mxCell id="bve2lGWTHoPqpzMd3bUK-84" value="" style="rounded=0;whiteSpace=wrap;html=1;fontFamily=Helvetica;fontSize=12;fontStyle=1;fillColor=#f5f5f5;fontColor=#333333;strokeColor=#666666;" vertex="1" parent="1">
          <mxGeometry x="492.22" y="345" width="20" height="20" as="geometry" />
        </mxCell>
        <mxCell id="bve2lGWTHoPqpzMd3bUK-85" value="" style="rounded=0;whiteSpace=wrap;html=1;fontFamily=Helvetica;fontSize=12;fontStyle=1;fillColor=#f5f5f5;fontColor=#333333;strokeColor=#666666;" vertex="1" parent="1">
          <mxGeometry x="462.22" y="355" width="20" height="20" as="geometry" />
        </mxCell>
        <mxCell id="bve2lGWTHoPqpzMd3bUK-86" value="" style="rounded=0;whiteSpace=wrap;html=1;fontFamily=Helvetica;fontSize=12;fontStyle=1;fillColor=#f5f5f5;fontColor=#333333;strokeColor=#666666;" vertex="1" parent="1">
          <mxGeometry x="482.22" y="355" width="20" height="20" as="geometry" />
        </mxCell>
        <mxCell id="bve2lGWTHoPqpzMd3bUK-87" value="" style="rounded=0;whiteSpace=wrap;html=1;fontFamily=Helvetica;fontSize=12;fontStyle=1;fillColor=#f5f5f5;fontColor=#333333;strokeColor=#666666;" vertex="1" parent="1">
          <mxGeometry x="502.22" y="355" width="20" height="20" as="geometry" />
        </mxCell>
        <mxCell id="bve2lGWTHoPqpzMd3bUK-88" value="" style="rounded=0;whiteSpace=wrap;html=1;fontFamily=Helvetica;fontSize=12;fontStyle=1;fillColor=#f5f5f5;fontColor=#333333;strokeColor=#666666;" vertex="1" parent="1">
          <mxGeometry x="472.22" y="365" width="20" height="20" as="geometry" />
        </mxCell>
        <mxCell id="bve2lGWTHoPqpzMd3bUK-89" value="" style="rounded=0;whiteSpace=wrap;html=1;fontFamily=Helvetica;fontSize=12;fontStyle=1;fillColor=#f5f5f5;fontColor=#333333;strokeColor=#666666;" vertex="1" parent="1">
          <mxGeometry x="512.22" y="365" width="20" height="20" as="geometry" />
        </mxCell>
        <mxCell id="bve2lGWTHoPqpzMd3bUK-90" value="" style="rounded=0;whiteSpace=wrap;html=1;fontFamily=Helvetica;fontSize=12;fontStyle=1;fillColor=#f5f5f5;fontColor=#333333;strokeColor=#666666;" vertex="1" parent="1">
          <mxGeometry x="492.22" y="365" width="20" height="20" as="geometry" />
        </mxCell>
        <mxCell id="bve2lGWTHoPqpzMd3bUK-91" value="" style="endArrow=classic;html=1;rounded=0;fontFamily=Helvetica;fontSize=12;fontColor=default;entryX=0.25;entryY=0;entryDx=0;entryDy=0;" edge="1" parent="1">
          <mxGeometry width="50" height="50" relative="1" as="geometry">
            <mxPoint x="492" y="310" as="sourcePoint" />
            <mxPoint x="491.82000000000005" y="345" as="targetPoint" />
            <Array as="points">
              <mxPoint x="491.82000000000005" y="320" />
            </Array>
          </mxGeometry>
        </mxCell>
        <mxCell id="bve2lGWTHoPqpzMd3bUK-92" value="" style="endArrow=classic;html=1;rounded=0;fontFamily=Helvetica;fontSize=12;fontColor=default;exitX=0;exitY=1;exitDx=0;exitDy=0;" edge="1" parent="1">
          <mxGeometry width="50" height="50" relative="1" as="geometry">
            <mxPoint x="484" y="385" as="sourcePoint" />
            <mxPoint x="60" y="480" as="targetPoint" />
            <Array as="points">
              <mxPoint x="484" y="400" />
              <mxPoint x="484" y="420" />
              <mxPoint x="40" y="420" />
              <mxPoint x="40" y="480" />
            </Array>
          </mxGeometry>
        </mxCell>
        <mxCell id="bve2lGWTHoPqpzMd3bUK-93" value="" style="rounded=0;whiteSpace=wrap;html=1;strokeColor=default;fontFamily=Helvetica;fontSize=12;fontColor=default;fillColor=default;" vertex="1" parent="1">
          <mxGeometry x="70" y="440" width="10" height="80" as="geometry" />
        </mxCell>
        <mxCell id="bve2lGWTHoPqpzMd3bUK-95" value="" style="rounded=0;whiteSpace=wrap;html=1;strokeColor=default;fontFamily=Helvetica;fontSize=12;fontColor=default;fillColor=default;" vertex="1" parent="1">
          <mxGeometry x="100" y="440" width="10" height="80" as="geometry" />
        </mxCell>
        <mxCell id="bve2lGWTHoPqpzMd3bUK-96" value="" style="rounded=0;whiteSpace=wrap;html=1;strokeColor=default;fontFamily=Helvetica;fontSize=12;fontColor=default;fillColor=default;" vertex="1" parent="1">
          <mxGeometry x="120" y="439.06" width="10" height="80" as="geometry" />
        </mxCell>
        <mxCell id="bve2lGWTHoPqpzMd3bUK-97" value="....." style="text;html=1;align=center;verticalAlign=middle;resizable=0;points=[];autosize=1;strokeColor=none;fillColor=none;fontSize=12;fontFamily=Helvetica;fontColor=default;" vertex="1" parent="1">
          <mxGeometry x="70" y="460" width="40" height="30" as="geometry" />
        </mxCell>
        <mxCell id="bve2lGWTHoPqpzMd3bUK-101" value="" style="endArrow=classic;html=1;fontFamily=Helvetica;fontSize=12;fontColor=default;rounded=0;" edge="1" parent="1">
          <mxGeometry width="50" height="50" relative="1" as="geometry">
            <mxPoint x="110" y="479.91999999999996" as="sourcePoint" />
            <mxPoint x="120" y="480.09" as="targetPoint" />
            <Array as="points" />
          </mxGeometry>
        </mxCell>
        <mxCell id="bve2lGWTHoPqpzMd3bUK-110" value="" style="endArrow=classic;html=1;rounded=0;fontFamily=Helvetica;fontSize=12;fontColor=default;" edge="1" parent="1">
          <mxGeometry width="50" height="50" relative="1" as="geometry">
            <mxPoint x="140.58" y="480.38" as="sourcePoint" />
            <mxPoint x="160" y="480" as="targetPoint" />
          </mxGeometry>
        </mxCell>
        <mxCell id="bve2lGWTHoPqpzMd3bUK-111" value="model output" style="rounded=1;whiteSpace=wrap;html=1;strokeColor=default;fontFamily=Helvetica;fontSize=12;fontColor=default;fillColor=default;" vertex="1" parent="1">
          <mxGeometry x="162.22" y="461.56" width="80" height="37.5" as="geometry" />
        </mxCell>
        <mxCell id="bve2lGWTHoPqpzMd3bUK-144" value="" style="edgeStyle=orthogonalEdgeStyle;rounded=0;orthogonalLoop=1;jettySize=auto;html=1;fontFamily=Helvetica;fontSize=12;fontColor=default;" edge="1" parent="1" source="bve2lGWTHoPqpzMd3bUK-117" target="bve2lGWTHoPqpzMd3bUK-143">
          <mxGeometry relative="1" as="geometry" />
        </mxCell>
        <mxCell id="bve2lGWTHoPqpzMd3bUK-117" value="Function-level Prediction" style="rounded=0;whiteSpace=wrap;html=1;strokeColor=default;fontFamily=Helvetica;fontSize=12;fontColor=default;fillColor=default;" vertex="1" parent="1">
          <mxGeometry x="272.69000000000005" y="440.62" width="146" height="20" as="geometry" />
        </mxCell>
        <mxCell id="bve2lGWTHoPqpzMd3bUK-146" value="" style="edgeStyle=orthogonalEdgeStyle;rounded=0;orthogonalLoop=1;jettySize=auto;html=1;fontFamily=Helvetica;fontSize=12;fontColor=default;" edge="1" parent="1" source="bve2lGWTHoPqpzMd3bUK-119" target="bve2lGWTHoPqpzMd3bUK-145">
          <mxGeometry relative="1" as="geometry" />
        </mxCell>
        <mxCell id="bve2lGWTHoPqpzMd3bUK-119" value="Line-level Prediction" style="rounded=0;whiteSpace=wrap;html=1;strokeColor=default;fontFamily=Helvetica;fontSize=12;fontColor=default;fillColor=default;" vertex="1" parent="1">
          <mxGeometry x="271.38" y="499.06" width="147.31" height="20" as="geometry" />
        </mxCell>
        <mxCell id="bve2lGWTHoPqpzMd3bUK-139" value="" style="endArrow=classic;html=1;rounded=0;fontFamily=Helvetica;fontSize=12;fontColor=default;exitX=1;exitY=0.489;exitDx=0;exitDy=0;exitPerimeter=0;entryX=-0.001;entryY=0.471;entryDx=0;entryDy=0;entryPerimeter=0;" edge="1" parent="1" source="bve2lGWTHoPqpzMd3bUK-111" target="bve2lGWTHoPqpzMd3bUK-117">
          <mxGeometry width="50" height="50" relative="1" as="geometry">
            <mxPoint x="242.22" y="482.52250000000004" as="sourcePoint" />
            <mxPoint x="272.8500000000001" y="451.88" as="targetPoint" />
            <Array as="points">
              <mxPoint x="250" y="480" />
              <mxPoint x="250.16" y="450" />
            </Array>
          </mxGeometry>
        </mxCell>
        <mxCell id="bve2lGWTHoPqpzMd3bUK-140" value="" style="endArrow=classic;html=1;rounded=0;fontFamily=Helvetica;fontSize=12;fontColor=default;entryX=-0.003;entryY=0.55;entryDx=0;entryDy=0;entryPerimeter=0;" edge="1" parent="1" target="bve2lGWTHoPqpzMd3bUK-119">
          <mxGeometry width="50" height="50" relative="1" as="geometry">
            <mxPoint x="250" y="480" as="sourcePoint" />
            <mxPoint x="270" y="510" as="targetPoint" />
            <Array as="points">
              <mxPoint x="250" y="480" />
              <mxPoint x="250" y="510" />
            </Array>
          </mxGeometry>
        </mxCell>
        <mxCell id="bve2lGWTHoPqpzMd3bUK-141" value="" style="endArrow=classic;html=1;rounded=0;fontFamily=Helvetica;fontSize=12;fontColor=default;exitX=0.406;exitY=1.047;exitDx=0;exitDy=0;exitPerimeter=0;entryX=0.5;entryY=0;entryDx=0;entryDy=0;" edge="1" parent="1">
          <mxGeometry width="50" height="50" relative="1" as="geometry">
            <mxPoint x="344.966" y="461.66999999999996" as="sourcePoint" />
            <mxPoint x="344.90000000000003" y="499.06" as="targetPoint" />
          </mxGeometry>
        </mxCell>
        <mxCell id="bve2lGWTHoPqpzMd3bUK-147" value="Vulnerable" style="edgeLabel;html=1;align=center;verticalAlign=middle;resizable=0;points=[];fontSize=12;fontFamily=Helvetica;fontColor=default;" vertex="1" connectable="0" parent="bve2lGWTHoPqpzMd3bUK-141">
          <mxGeometry x="-0.3932" y="1" relative="1" as="geometry">
            <mxPoint x="2" y="2" as="offset" />
          </mxGeometry>
        </mxCell>
        <mxCell id="bve2lGWTHoPqpzMd3bUK-143" value="Vulnerable or clean" style="rounded=1;whiteSpace=wrap;html=1;strokeColor=default;fontFamily=Helvetica;fontSize=12;fontColor=default;fillColor=default;" vertex="1" parent="1">
          <mxGeometry x="444.44000000000005" y="435" width="87.78" height="31.25" as="geometry" />
        </mxCell>
        <mxCell id="bve2lGWTHoPqpzMd3bUK-145" value="Vulnerable lines" style="rounded=1;whiteSpace=wrap;html=1;strokeColor=default;fontFamily=Helvetica;fontSize=12;fontColor=default;fillColor=default;" vertex="1" parent="1">
          <mxGeometry x="444.44000000000005" y="493.12" width="87.78" height="30" as="geometry" />
        </mxCell>
        <mxCell id="bve2lGWTHoPqpzMd3bUK-149" value="Feature Extraction" style="text;html=1;strokeColor=none;fillColor=none;align=center;verticalAlign=middle;whiteSpace=wrap;rounded=0;fontSize=12;fontFamily=Helvetica;fontColor=default;" vertex="1" parent="1">
          <mxGeometry x="298.07" y="200" width="123.85" height="30" as="geometry" />
        </mxCell>
        <mxCell id="bve2lGWTHoPqpzMd3bUK-151" value="Classifier Learning" style="text;html=1;strokeColor=none;fillColor=none;align=center;verticalAlign=middle;whiteSpace=wrap;rounded=0;fontSize=12;fontFamily=Helvetica;fontColor=default;" vertex="1" parent="1">
          <mxGeometry x="25.29" y="530" width="129.42" height="30" as="geometry" />
        </mxCell>
      </root>
    </mxGraphModel>
  </diagram>
</mxfile>
